<svg width="15" height="13" viewBox="0 0 15 13" fill="none" xmlns="http://www.w3.org/2000/svg">
<path d="M13.0668 5.34727V3.41393C13.0668 2.86165 12.619 2.41393 12.0668 2.41393H7.61431C7.34909 2.41393 7.09474 2.30858 6.9072 2.12104L6.02632 1.24016C5.83879 1.05262 5.58443 0.947266 5.31922 0.947266H1.6001C1.04781 0.947266 0.600098 1.39498 0.600098 1.94727V10.9473C0.600098 11.4996 1.04781 11.9473 1.6001 11.9473H2.17933C2.52217 11.9473 2.8001 11.6693 2.8001 11.3265V11.3265C2.8001 11.2521 2.81349 11.1782 2.83962 11.1085L4.75677 5.99614C4.90313 5.60584 5.27625 5.34727 5.6931 5.34727H13.146C13.8286 5.34727 14.3105 6.01596 14.0947 6.66349L12.5614 11.2635C12.4252 11.6718 12.0431 11.9473 11.6127 11.9473H2.06676" stroke="white" stroke-linecap="round" stroke-linejoin="round"/>
</svg>
