<svg width="20" height="20" viewBox="0 0 20 20" fill="none" xmlns="http://www.w3.org/2000/svg">
<path d="M1.59467 16.7822C1.30178 17.0751 1.30178 17.5499 1.59467 17.8428C1.88756 18.1357 2.36244 18.1357 2.65533 17.8428L1.59467 16.7822ZM6.625 12.8125L7.15533 12.2822C6.86244 11.9893 6.38756 11.9893 6.09467 12.2822L6.625 12.8125ZM8.875 15.0625L8.34467 15.5928C8.63756 15.8857 9.11244 15.8857 9.40533 15.5928L8.875 15.0625ZM13.9375 10L14.4678 9.46967C14.1749 9.17678 13.7001 9.17678 13.4072 9.46967L13.9375 10ZM17.9072 15.0303C18.2001 15.3232 18.6749 15.3232 18.9678 15.0303C19.2607 14.7374 19.2607 14.2626 18.9678 13.9697L17.9072 15.0303ZM2.65533 17.8428L7.15533 13.3428L6.09467 12.2822L1.59467 16.7822L2.65533 17.8428ZM6.09467 13.3428L8.34467 15.5928L9.40533 14.5322L7.15533 12.2822L6.09467 13.3428ZM9.40533 15.5928L14.4678 10.5303L13.4072 9.46967L8.34467 14.5322L9.40533 15.5928ZM13.4072 10.5303L17.9072 15.0303L18.9678 13.9697L14.4678 9.46967L13.4072 10.5303ZM4.375 1.75H15.625V0.25H4.375V1.75ZM18.25 4.375V15.625H19.75V4.375H18.25ZM15.625 18.25H4.375V19.75H15.625V18.25ZM1.75 15.625V4.375H0.25V15.625H1.75ZM4.375 18.25C2.92525 18.25 1.75 17.0747 1.75 15.625H0.25C0.25 17.9032 2.09683 19.75 4.375 19.75V18.25ZM18.25 15.625C18.25 17.0747 17.0747 18.25 15.625 18.25V19.75C17.9032 19.75 19.75 17.9032 19.75 15.625H18.25ZM15.625 1.75C17.0747 1.75 18.25 2.92525 18.25 4.375H19.75C19.75 2.09683 17.9032 0.25 15.625 0.25V1.75ZM4.375 0.25C2.09683 0.25 0.25 2.09683 0.25 4.375H1.75C1.75 2.92525 2.92525 1.75 4.375 1.75V0.25ZM7 6.0625C7 6.58027 6.58027 7 6.0625 7V8.5C7.40869 8.5 8.5 7.40869 8.5 6.0625H7ZM6.0625 7C5.54473 7 5.125 6.58027 5.125 6.0625H3.625C3.625 7.40869 4.71631 8.5 6.0625 8.5V7ZM5.125 6.0625C5.125 5.54473 5.54473 5.125 6.0625 5.125V3.625C4.71631 3.625 3.625 4.71631 3.625 6.0625H5.125ZM6.0625 5.125C6.58027 5.125 7 5.54473 7 6.0625H8.5C8.5 4.71631 7.40869 3.625 6.0625 3.625V5.125Z" fill="white"/>
</svg>
