<svg width="18" height="18" viewBox="0 0 18 18" fill="none" xmlns="http://www.w3.org/2000/svg">
<path d="M13 9.19951V12.7995C13 15.7995 11.8 16.9995 8.79999 16.9995H5.19999C2.2 16.9995 1 15.7995 1 12.7995V9.19951C1 6.19951 2.2 4.99951 5.19999 4.99951H8.79999C11.8 4.99951 13 6.19951 13 9.19951Z" stroke="white" stroke-width="1.5" stroke-linecap="round" stroke-linejoin="round"/>
<path d="M17.0001 5.39999C17.0001 7.69599 15.2481 9.57599 13.0001 9.77599V9.19999C13.0001 6.19999 11.8001 4.99999 8.80012 4.99999H8.22412C8.42412 2.752 10.3041 1 12.6001 1C14.8321 1 16.6721 2.656 16.9521 4.81599C16.9841 4.99999 17.0001 5.19999 17.0001 5.39999Z" stroke="white" stroke-width="1.5" stroke-linecap="round" stroke-linejoin="round"/>
</svg>
