<svg width="40" height="40" viewBox="0 0 40 40" fill="none" xmlns="http://www.w3.org/2000/svg">
<mask id="mask0_1_595" style="mask-type:luminance" maskUnits="userSpaceOnUse" x="0" y="0" width="40" height="40">
<path d="M40 0H0V40H40V0Z" fill="white"/>
</mask>
<g mask="url(#mask0_1_595)">
<mask id="mask1_1_595" style="mask-type:luminance" maskUnits="userSpaceOnUse" x="0" y="0" width="40" height="40">
<path d="M40 0H0V40H40V0Z" fill="white"/>
</mask>
<g mask="url(#mask1_1_595)">
<mask id="mask2_1_595" style="mask-type:luminance" maskUnits="userSpaceOnUse" x="0" y="0" width="40" height="40">
<path d="M0 0H40V40H0V0Z" fill="white"/>
</mask>
<g mask="url(#mask2_1_595)">
<mask id="mask3_1_595" style="mask-type:luminance" maskUnits="userSpaceOnUse" x="0" y="-1" width="41" height="41">
<path d="M0.000305176 -0.000274658H40.0003V39.9998H0.000305176V-0.000274658Z" fill="white"/>
</mask>
<g mask="url(#mask3_1_595)">
<mask id="mask4_1_595" style="mask-type:luminance" maskUnits="userSpaceOnUse" x="7" y="2" width="26" height="36">
<path d="M32.4308 2.64211H7.64758V37.3541H32.4308V2.64211Z" fill="white"/>
</mask>
<g mask="url(#mask4_1_595)">
<path d="M12.5749 32.4124V27.4476H12.5751H14.433C15.3131 27.4476 16.0266 28.161 16.0266 29.0411C16.0266 29.9212 15.3131 30.6347 14.433 30.6347H12.5751" stroke="#393E46" stroke-linecap="round" stroke-linejoin="round"/>
<path d="M19.9253 27.4472H18.1575V32.4122H19.9253C21.0276 32.4122 21.9212 31.5186 21.9212 30.4163V29.4431C21.9212 28.3407 21.0276 27.4472 19.9253 27.4472Z" stroke="#393E46" stroke-linecap="round" stroke-linejoin="round"/>
<path d="M27.6577 27.4476H24.3477V32.4125" stroke="#393E46" stroke-linecap="round" stroke-linejoin="round"/>
<path d="M27.0198 29.9304H24.348" stroke="#393E46" stroke-linecap="round" stroke-linejoin="round"/>
</g>
</g>
<path d="M22.4828 2.6223H7.58795V37.333H32.4121V12.5526L22.4828 2.6223Z" stroke="#393E46" stroke-linecap="round" stroke-linejoin="round"/>
<path d="M22.4825 2.62267V12.5526H32.4124" stroke="#393E46" stroke-linecap="round" stroke-linejoin="round"/>
</g>
</g>
</g>
</svg>
