<svg width="114" height="114" viewBox="0 0 114 114" fill="none" xmlns="http://www.w3.org/2000/svg">
<g clip-path="url(#clip0_25_17)">
<path d="M33.1075 61.75H23.75V90.25H28.5V80.75H33.1075C38.38 80.75 42.655 76.38 42.655 71.155C42.655 65.93 38.38 61.75 33.1075 61.75ZM33.1075 76H28.5V66.5H33.1075C35.7675 66.5 37.905 68.59 37.905 71.155C37.905 73.72 35.72 76 33.1075 76ZM57 61.75C56.715 61.75 47.5 61.75 47.5 61.75V90.25C47.5 90.25 56.715 90.25 57 90.25C62.2725 90.25 66.5 86.0225 66.5 80.845V71.2025C66.5 66.025 62.2725 61.7975 57 61.7975V61.75ZM61.75 80.845C61.75 83.3625 59.7075 85.405 57.19 85.5H52.25V66.5H57.19C59.7075 66.595 61.75 68.685 61.75 71.155V80.7975V80.845ZM71.25 61.75H90.25V66.5H76V76H85.5V80.75H76V90.25H71.25V61.75ZM69.8725 0H21.375C14.82 0 9.5 5.32 9.5 11.875V114H104.5V34.6275L69.8725 0ZM71.25 8.1225L96.3775 33.25H71.25V8.1225ZM14.25 109.25V11.875C14.25 7.9325 17.4325 4.75 21.375 4.75H66.5V38H99.75V109.25H14.25Z" fill="#393E46"/>
</g>
<defs>
<clipPath id="clip0_25_17">
<rect width="114" height="114" fill="white"/>
</clipPath>
</defs>
</svg>
