<svg width="9" height="9" viewBox="0 0 9 9" fill="none" xmlns="http://www.w3.org/2000/svg">
<path fill-rule="evenodd" clip-rule="evenodd" d="M7.875 0.5625H1.125C0.975816 0.5625 0.832742 0.621763 0.727253 0.727253C0.621763 0.832742 0.5625 0.975816 0.5625 1.125V5.78981L2.61337 3.73837C2.6395 3.71218 2.67054 3.6914 2.70471 3.67722C2.73888 3.66305 2.77551 3.65575 2.8125 3.65575C2.84949 3.65575 2.88612 3.66305 2.92029 3.67722C2.95446 3.6914 2.9855 3.71218 3.01163 3.73837L7.71019 8.4375H7.875C8.02418 8.4375 8.16726 8.37824 8.27275 8.27275C8.37824 8.16726 8.4375 8.02418 8.4375 7.875V1.125C8.4375 0.975816 8.37824 0.832742 8.27275 0.727253C8.16726 0.621763 8.02418 0.5625 7.875 0.5625ZM0 6.46875V7.875C0 8.17337 0.118526 8.45952 0.329505 8.6705C0.540483 8.88147 0.826631 9 1.125 9H7.875C8.17337 9 8.45952 8.88147 8.6705 8.6705C8.88147 8.45952 9 8.17337 9 7.875V1.125C9 0.826631 8.88147 0.540483 8.6705 0.329505C8.45952 0.118526 8.17337 0 7.875 0H1.125C0.826631 0 0.540483 0.118526 0.329505 0.329505C0.118526 0.540483 0 0.826631 0 1.125V6.46875ZM1.125 8.4375H6.91481L2.8125 4.33519L0.5625 6.58519V7.875C0.5625 8.02418 0.621763 8.16726 0.727253 8.27275C0.832742 8.37824 0.975816 8.4375 1.125 8.4375ZM6.75 3.09375C6.75 3.31753 6.66111 3.53214 6.50287 3.69037C6.34464 3.84861 6.13003 3.9375 5.90625 3.9375C5.68247 3.9375 5.46786 3.84861 5.30963 3.69037C5.15139 3.53214 5.0625 3.31753 5.0625 3.09375C5.0625 2.86997 5.15139 2.65536 5.30963 2.49713C5.46786 2.33889 5.68247 2.25 5.90625 2.25C6.13003 2.25 6.34464 2.33889 6.50287 2.49713C6.66111 2.65536 6.75 2.86997 6.75 3.09375ZM7.3125 3.09375C7.3125 3.46671 7.16434 3.8244 6.90062 4.08812C6.6369 4.35184 6.27921 4.5 5.90625 4.5C5.53329 4.5 5.1756 4.35184 4.91188 4.08812C4.64816 3.8244 4.5 3.46671 4.5 3.09375C4.5 2.72079 4.64816 2.3631 4.91188 2.09938C5.1756 1.83566 5.53329 1.6875 5.90625 1.6875C6.27921 1.6875 6.6369 1.83566 6.90062 2.09938C7.16434 2.3631 7.3125 2.72079 7.3125 3.09375Z" fill="white"/>
</svg>
