<svg width="14" height="14" viewBox="0 0 14 14" fill="none" xmlns="http://www.w3.org/2000/svg">
<path fill-rule="evenodd" clip-rule="evenodd" d="M12.25 0.875H1.75C1.51794 0.875 1.29538 0.967187 1.13128 1.13128C0.967187 1.29538 0.875 1.51794 0.875 1.75V9.00638L4.06525 5.81525C4.10589 5.77451 4.15417 5.74218 4.20732 5.72013C4.26047 5.69807 4.31745 5.68672 4.375 5.68672C4.43255 5.68672 4.48953 5.69807 4.54268 5.72013C4.59583 5.74218 4.64411 5.77451 4.68475 5.81525L11.9936 13.125H12.25C12.4821 13.125 12.7046 13.0328 12.8687 12.8687C13.0328 12.7046 13.125 12.4821 13.125 12.25V1.75C13.125 1.51794 13.0328 1.29538 12.8687 1.13128C12.7046 0.967187 12.4821 0.875 12.25 0.875ZM0 10.0625V12.25C0 12.7141 0.184374 13.1592 0.512563 13.4874C0.840752 13.8156 1.28587 14 1.75 14H12.25C12.7141 14 13.1592 13.8156 13.4874 13.4874C13.8156 13.1592 14 12.7141 14 12.25V1.75C14 1.28587 13.8156 0.840752 13.4874 0.512563C13.1592 0.184374 12.7141 0 12.25 0H1.75C1.28587 0 0.840752 0.184374 0.512563 0.512563C0.184374 0.840752 0 1.28587 0 1.75V10.0625ZM1.75 13.125H10.7564L4.375 6.74362L0.875 10.2436V12.25C0.875 12.4821 0.967187 12.7046 1.13128 12.8687C1.29538 13.0328 1.51794 13.125 1.75 13.125ZM10.5 4.8125C10.5 5.1606 10.3617 5.49444 10.1156 5.74058C9.86944 5.98672 9.5356 6.125 9.1875 6.125C8.8394 6.125 8.50556 5.98672 8.25942 5.74058C8.01328 5.49444 7.875 5.1606 7.875 4.8125C7.875 4.4644 8.01328 4.13056 8.25942 3.88442C8.50556 3.63828 8.8394 3.5 9.1875 3.5C9.5356 3.5 9.86944 3.63828 10.1156 3.88442C10.3617 4.13056 10.5 4.4644 10.5 4.8125ZM11.375 4.8125C11.375 5.39266 11.1445 5.94906 10.7343 6.3593C10.3241 6.76953 9.76766 7 9.1875 7C8.60734 7 8.05094 6.76953 7.6407 6.3593C7.23047 5.94906 7 5.39266 7 4.8125C7 4.23234 7.23047 3.67594 7.6407 3.2657C8.05094 2.85547 8.60734 2.625 9.1875 2.625C9.76766 2.625 10.3241 2.85547 10.7343 3.2657C11.1445 3.67594 11.375 4.23234 11.375 4.8125Z" fill="white"/>
</svg>
