<svg width="18" height="18" viewBox="0 0 18 18" fill="none" xmlns="http://www.w3.org/2000/svg">
<path d="M12.6525 14.295H6.6525C4.275 14.295 2.34 12.36 2.34 9.9825C2.34 7.605 4.275 5.67 6.6525 5.67H14.9025C15.21 5.67 15.465 5.925 15.465 6.2325C15.465 6.54 15.21 6.795 14.9025 6.795H6.6525C4.8975 6.795 3.465 8.2275 3.465 9.9825C3.465 11.7375 4.8975 13.17 6.6525 13.17H12.6525C12.96 13.17 13.215 13.425 13.215 13.7325C13.215 14.04 12.9675 14.295 12.6525 14.295Z" fill="#393E46"/>
<path d="M13.1775 8.67C13.035 8.67 12.8925 8.6175 12.78 8.505C12.5625 8.2875 12.5625 7.9275 12.78 7.71L14.3025 6.1875L12.78 4.665C12.5625 4.4475 12.5625 4.0875 12.78 3.87C12.9975 3.6525 13.3575 3.6525 13.575 3.87L15.495 5.79C15.7125 6.0075 15.7125 6.3675 15.495 6.585L13.575 8.505C13.4625 8.6175 13.32 8.67 13.1775 8.67Z" fill="#393E46"/>
</svg>
