<svg width="20" height="20" viewBox="0 0 20 20" fill="none" xmlns="http://www.w3.org/2000/svg">
<path d="M14.0583 15.8833H7.39167C4.75001 15.8833 2.60001 13.7333 2.60001 11.0917C2.60001 8.45 4.75001 6.3 7.39167 6.3H16.5583C16.9 6.3 17.1833 6.58334 17.1833 6.925C17.1833 7.26667 16.9 7.55 16.5583 7.55H7.39167C5.44167 7.55 3.85001 9.14167 3.85001 11.0917C3.85001 13.0417 5.44167 14.6333 7.39167 14.6333H14.0583C14.4 14.6333 14.6833 14.9167 14.6833 15.2583C14.6833 15.6 14.4083 15.8833 14.0583 15.8833Z" fill="#393E46"/>
<path d="M14.6417 9.63333C14.4833 9.63333 14.325 9.575 14.2 9.45C13.9583 9.20833 13.9583 8.80833 14.2 8.56667L15.8917 6.875L14.2 5.18333C13.9583 4.94167 13.9583 4.54167 14.2 4.3C14.4417 4.05833 14.8417 4.05833 15.0833 4.3L17.2167 6.43333C17.4583 6.675 17.4583 7.075 17.2167 7.31667L15.0833 9.45C14.9583 9.575 14.8 9.63333 14.6417 9.63333Z" fill="#393E46"/>
</svg>
