<svg width="18" height="18" viewBox="0 0 18 18" fill="none" xmlns="http://www.w3.org/2000/svg">
<path d="M6 13.4625C6.125 13.475 6.24688 13.4844 6.36563 13.4906C6.48438 13.4969 6.6125 13.5 6.75 13.5C6.8875 13.5 7.01563 13.4969 7.13438 13.4906C7.25313 13.4844 7.375 13.475 7.5 13.4625V15H15V7.5H13.4625C13.475 7.375 13.4844 7.25313 13.4906 7.13438C13.4969 7.01563 13.5 6.8875 13.5 6.75C13.5 6.6125 13.4969 6.48438 13.4906 6.36563C13.4844 6.24688 13.475 6.125 13.4625 6H15C15.4125 6 15.7656 6.14688 16.0594 6.44063C16.3531 6.73438 16.5 7.0875 16.5 7.5V15C16.5 15.4125 16.3531 15.7656 16.0594 16.0594C15.7656 16.3531 15.4125 16.5 15 16.5H7.5C7.0875 16.5 6.73438 16.3531 6.44063 16.0594C6.14688 15.7656 6 15.4125 6 15V13.4625ZM6.75 12C5.2875 12 4.04688 11.4906 3.02813 10.4719C2.00938 9.45313 1.5 8.2125 1.5 6.75C1.5 5.2875 2.00938 4.04688 3.02813 3.02813C4.04688 2.00938 5.2875 1.5 6.75 1.5C8.2125 1.5 9.45313 2.00938 10.4719 3.02813C11.4906 4.04688 12 5.2875 12 6.75C12 8.2125 11.4906 9.45313 10.4719 10.4719C9.45313 11.4906 8.2125 12 6.75 12ZM6.75 10.5C7.7875 10.5 8.67188 10.1344 9.40313 9.40313C10.1344 8.67188 10.5 7.7875 10.5 6.75C10.5 5.7125 10.1344 4.82813 9.40313 4.09688C8.67188 3.36563 7.7875 3 6.75 3C5.7125 3 4.82813 3.36563 4.09688 4.09688C3.36563 4.82813 3 5.7125 3 6.75C3 7.7875 3.36563 8.67188 4.09688 9.40313C4.82813 10.1344 5.7125 10.5 6.75 10.5Z" fill="#393E46"/>
</svg>
