<svg width="14" height="14" viewBox="0 0 14 14" fill="none" xmlns="http://www.w3.org/2000/svg">
<path fill-rule="evenodd" clip-rule="evenodd" d="M0 4.66638C0 5.84942 0.440222 6.92978 1.16667 7.7527C1.96306 8.65597 3.07778 9.21641 4.27778 9.31686C4.3283 9.3201 4.37895 9.31281 4.42652 9.29545C4.47408 9.27809 4.51752 9.25105 4.55408 9.21602C4.59064 9.18099 4.61952 9.13875 4.63891 9.09198C4.65829 9.0452 4.66774 8.99491 4.66667 8.94429C4.66474 8.84127 4.62473 8.74261 4.55435 8.66734C4.48397 8.59208 4.38822 8.54555 4.28556 8.53672H4.27778C3.31457 8.43988 2.42212 7.98726 1.77489 7.26735C1.36418 6.81052 1.06752 6.26289 0.909233 5.66932C0.750943 5.07574 0.735516 4.45311 0.864217 3.85243C0.992918 3.25174 1.26209 2.69009 1.64967 2.21349C2.03726 1.73688 2.53223 1.35887 3.09406 1.11043C3.65588 0.861985 4.26856 0.750175 4.88192 0.784158C5.49528 0.81814 6.09187 0.996947 6.62281 1.30593C7.15375 1.61492 7.60394 2.04529 7.9365 2.5618C8.26907 3.07831 8.47455 3.66626 8.53611 4.27748L8.53689 4.2837L8.547 4.34048C8.56731 4.4314 8.61749 4.5129 8.68953 4.57197C8.76156 4.63104 8.85131 4.66428 8.94444 4.66638C8.99513 4.66756 9.0455 4.65819 9.09237 4.63886C9.13924 4.61953 9.18157 4.59065 9.21668 4.55408C9.25179 4.51751 9.27891 4.47403 9.29631 4.42641C9.31372 4.37879 9.32103 4.32808 9.31778 4.27748C9.21713 3.07733 8.65642 1.96256 7.75289 1.16628C7.07931 0.572382 6.24869 0.185449 5.36068 0.0518982C4.47267 -0.0816527 3.56498 0.0438505 2.74652 0.413351C1.92806 0.782851 1.23359 1.38065 0.746423 2.13504C0.259255 2.88943 8.27403e-05 3.76836 0 4.66638ZM7 6.22198H12.4444C12.6507 6.22198 12.8486 6.30393 12.9944 6.4498C13.1403 6.59566 13.2222 6.7935 13.2222 6.99979V12.4444C13.2222 12.6507 13.1403 12.8485 12.9944 12.9944C12.8486 13.1403 12.6507 13.2222 12.4444 13.2222H7C6.79372 13.2222 6.59589 13.1403 6.45003 12.9944C6.30417 12.8485 6.22222 12.6507 6.22222 12.4444V6.99979C6.22222 6.7935 6.30417 6.59566 6.45003 6.4498C6.59589 6.30393 6.79372 6.22198 7 6.22198ZM5.44444 6.99979C5.44444 6.58721 5.60833 6.19154 5.90006 5.89981C6.19178 5.60808 6.58744 5.44418 7 5.44418H12.4444C12.857 5.44418 13.2527 5.60808 13.5444 5.89981C13.8361 6.19154 14 6.58721 14 6.99979V12.4444C14 12.857 13.8361 13.2526 13.5444 13.5444C13.2527 13.8361 12.857 14 12.4444 14H7C6.58744 14 6.19178 13.8361 5.90006 13.5444C5.60833 13.2526 5.44444 12.857 5.44444 12.4444V6.99979Z" fill="white"/>
</svg>
