<svg width="14" height="14" viewBox="0 0 14 14" fill="none" xmlns="http://www.w3.org/2000/svg">
<path fill-rule="evenodd" clip-rule="evenodd" d="M0 0.466667C0 0.342899 0.0491666 0.224201 0.136684 0.136684C0.224201 0.0491666 0.342899 0 0.466667 0H13.5333C13.6571 0 13.7758 0.0491666 13.8633 0.136684C13.9508 0.224201 14 0.342899 14 0.466667V3.26667C14 3.39043 13.9508 3.50913 13.8633 3.59665C13.7758 3.68417 13.6571 3.73333 13.5333 3.73333C13.4096 3.73333 13.2909 3.68417 13.2034 3.59665C13.1158 3.50913 13.0667 3.39043 13.0667 3.26667V0.933333H7.46667V13.0667H9.8C9.92377 13.0667 10.0425 13.1158 10.13 13.2034C10.2175 13.2909 10.2667 13.4096 10.2667 13.5333C10.2667 13.6571 10.2175 13.7758 10.13 13.8633C10.0425 13.9508 9.92377 14 9.8 14H4.2C4.07623 14 3.95753 13.9508 3.87002 13.8633C3.7825 13.7758 3.73333 13.6571 3.73333 13.5333C3.73333 13.4096 3.7825 13.2909 3.87002 13.2034C3.95753 13.1158 4.07623 13.0667 4.2 13.0667H6.53333V0.933333H0.933333V3.26667C0.933333 3.39043 0.884167 3.50913 0.79665 3.59665C0.709133 3.68417 0.590434 3.73333 0.466667 3.73333C0.342899 3.73333 0.224201 3.68417 0.136684 3.59665C0.0491666 3.50913 0 3.39043 0 3.26667V0.466667Z" fill="white"/>
</svg>
