<svg width="18" height="18" viewBox="0 0 18 18" fill="none" xmlns="http://www.w3.org/2000/svg">
<path d="M11.3475 14.295H5.3475C5.04 14.295 4.785 14.04 4.785 13.7325C4.785 13.425 5.04 13.17 5.3475 13.17H11.3475C13.1025 13.17 14.535 11.7375 14.535 9.9825C14.535 8.2275 13.1025 6.795 11.3475 6.795H3.0975C2.79 6.795 2.535 6.54 2.535 6.2325C2.535 5.925 2.79 5.67 3.0975 5.67H11.3475C13.725 5.67 15.66 7.605 15.66 9.9825C15.66 12.36 13.725 14.295 11.3475 14.295Z" fill="#393E46"/>
<path d="M4.82251 8.67C4.68001 8.67 4.53751 8.6175 4.42501 8.505L2.50501 6.585C2.28751 6.3675 2.28751 6.0075 2.50501 5.79L4.42501 3.87C4.64251 3.6525 5.00251 3.6525 5.22001 3.87C5.43751 4.0875 5.43751 4.4475 5.22001 4.665L3.69751 6.1875L5.22001 7.71C5.43751 7.9275 5.43751 8.2875 5.22001 8.505C5.11501 8.6175 4.96501 8.67 4.82251 8.67Z" fill="#393E46"/>
</svg>
