<svg width="20" height="20" viewBox="0 0 20 20" fill="none" xmlns="http://www.w3.org/2000/svg">
<path d="M12.6083 15.8833H5.94168C5.60001 15.8833 5.31668 15.6 5.31668 15.2583C5.31668 14.9167 5.60001 14.6333 5.94168 14.6333H12.6083C14.5583 14.6333 16.15 13.0417 16.15 11.0917C16.15 9.14167 14.5583 7.55 12.6083 7.55H3.44168C3.10001 7.55 2.81668 7.26667 2.81668 6.925C2.81668 6.58334 3.10001 6.3 3.44168 6.3H12.6083C15.25 6.3 17.4 8.45 17.4 11.0917C17.4 13.7333 15.25 15.8833 12.6083 15.8833Z" fill="#393E46"/>
<path d="M5.35833 9.63333C5.2 9.63333 5.04166 9.575 4.91666 9.45L2.78333 7.31667C2.54166 7.075 2.54166 6.675 2.78333 6.43333L4.91666 4.3C5.15833 4.05833 5.55833 4.05833 5.8 4.3C6.04166 4.54167 6.04166 4.94167 5.8 5.18333L4.10833 6.875L5.8 8.56667C6.04166 8.80833 6.04166 9.20833 5.8 9.45C5.68333 9.575 5.51666 9.63333 5.35833 9.63333Z" fill="#393E46"/>
</svg>
